<svg xmlns="http://www.w3.org/2000/svg" xmlns:xlink="http://www.w3.org/1999/xlink" width="200" height="200" viewBox="0 0 200 200">
  <defs>
    <clipPath id="clip-NBNG-logo-200x200">
      <rect width="200" height="200"/>
    </clipPath>
  </defs>
  <g id="NBNG-logo-200x200" clip-path="url(#clip-NBNG-logo-200x200)">
    <circle id="楕円形_136" data-name="楕円形 136" cx="100" cy="100" r="100" fill="#fff"/>
    <path id="パス_3344" data-name="パス 3344" d="M177.081,306.467V294.248a2.379,2.379,0,1,0-4.757,0v12.219a10.4,10.4,0,0,0-1.856.627l-16.562-22.8a8.775,8.775,0,0,1,12.15-10.615,8.776,8.776,0,0,1,17.287-.059,8.979,8.979,0,0,1,12.145,11l-16.379,22.553a10.154,10.154,0,0,0-2.028-.7m-26.437-19.474a8.979,8.979,0,0,0-14.213,8.157,8.774,8.774,0,0,0-5.285,16.458,8.775,8.775,0,0,0,6.346,14.835l26.812-8.715a9.633,9.633,0,0,1-.059-1.076c0-.291.015-.587.04-.873L152.647,312a2.379,2.379,0,0,1,1.471-4.526l11.627,3.775a10.353,10.353,0,0,1,1.288-1.7ZM166.8,323.5a11.326,11.326,0,0,1-1.224-1.737l-26.526,8.617a8.976,8.976,0,0,0,3.366,16.034,8.776,8.776,0,0,0,14.02,10.117,8.77,8.77,0,0,0,16.068-1.451l0-28.2a10.116,10.116,0,0,1-1.856-.577l-7.2,9.9a2.378,2.378,0,1,1-3.849-2.793Zm21.245,37.082a8.976,8.976,0,0,0,4.974-4.007,8.773,8.773,0,0,0,13.946-10.205,8.775,8.775,0,0,0,3.593-15.733l-26.817-8.715A9.783,9.783,0,0,1,182.6,323.5l7.2,9.91a2.378,2.378,0,1,1-3.849,2.793l-7.2-9.9a10.377,10.377,0,0,1-2.028.617v27.9a8.986,8.986,0,0,0,11.316,5.764m23.56-34.047a8.98,8.98,0,0,0,6.712-14.953,8.777,8.777,0,0,0-5.4-16.424,8.772,8.772,0,0,0-13.853-8.271L182.5,309.69a10.6,10.6,0,0,1,1.16,1.564l11.632-3.775A2.379,2.379,0,0,1,196.761,312L185.12,315.78c.025.286.039.582.039.873a9.7,9.7,0,0,1-.079,1.263Zm-29.161-9.88a7.736,7.736,0,1,0-7.738,7.738,7.741,7.741,0,0,0,7.738-7.738m-42.7-51.956a6.424,6.424,0,0,1,3.237-3.726,63.806,63.806,0,0,1,63.459,0,6.454,6.454,0,0,1,3.232,3.721l7.906-10.877a12.025,12.025,0,0,0-4.022-17.658,28.9,28.9,0,0,0-5.478-2.961c-10.166-4.5-21.576-6.425-33.37-6.425-13.685,0-26.442,2.675-38.246,8.562-1.194.6-1.155.666-1.155.666a12.015,12.015,0,0,0-3.706,17.48Zm62.423,7.792a2.922,2.922,0,0,0,.839-.118,3.014,3.014,0,0,0,.479-5.651,57.661,57.661,0,0,0-57.552,0,3.014,3.014,0,0,0,.513,5.66,2.93,2.93,0,0,0,.8.108,3.011,3.011,0,0,0,2.458-4.757,55.089,55.089,0,0,1,50.007,0,2.976,2.976,0,0,0-.563,1.747,3.011,3.011,0,0,0,3.015,3.01M135.9,277.756a3.012,3.012,0,0,0,5.285-.864,3.322,3.322,0,0,0,.143-.839,3.011,3.011,0,0,0-5.221-2.2,57.641,57.641,0,0,0-17.791,54.734,3.016,3.016,0,0,0,5.542,1.259,2.865,2.865,0,0,0,.355-.73,3.012,3.012,0,0,0-1.934-3.795,2.973,2.973,0,0,0-1.831-.01A55.052,55.052,0,0,1,135.9,277.756m4.93,85.519a57.357,57.357,0,0,0,27.8,10.689,3.031,3.031,0,1,0-1.88-4.777,2.973,2.973,0,0,0-.577,1.742,55.078,55.078,0,0,1-40.457-29.393,3.013,3.013,0,0,0,.814-5.3,3.243,3.243,0,0,0-.75-.4,3.015,3.015,0,0,0-3.706,4.294,57.381,57.381,0,0,0,18.758,23.14m42.392,7.654a3.007,3.007,0,0,0-4.777-2.408,3.024,3.024,0,0,0,2.324,5.443,57.639,57.639,0,0,0,46.557-33.829,3.011,3.011,0,0,0-3.741-4.274,3.122,3.122,0,0,0-.716.38,3.013,3.013,0,0,0,.814,5.3,55.074,55.074,0,0,1-40.462,29.393m45.8-39.826a3.015,3.015,0,0,0,2.063-2.512A57.674,57.674,0,0,0,213.3,273.857a3.051,3.051,0,1,0,.2,3.9,55.051,55.051,0,0,1,15.451,47.559,2.973,2.973,0,0,0-1.831.01,3.02,3.02,0,0,0-1.939,3.795,3.165,3.165,0,0,0,.38.765,3.01,3.01,0,0,0,3.459,1.219m-127.358,6.756,13.181-4.279a6.454,6.454,0,0,1-2.541-4.234A63.768,63.768,0,0,1,131.915,269a6.422,6.422,0,0,1,4.54-1.929l-7.911-10.887a12.03,12.03,0,0,0-18.033-1.629,28.808,28.808,0,0,0-4.506,4.3c-7.422,8.271-12.777,18.531-16.424,29.748-4.229,13.014-5.631,25.973-3.677,39.016.2,1.328.276,1.308.276,1.308a12.023,12.023,0,0,0,15.481,8.928m66.2,41.795a63.765,63.765,0,0,1-51.334-37.294,6.415,6.415,0,0,1-.429-4.92l-12.8,4.155a12.026,12.026,0,0,0-7.121,16.646,28.518,28.518,0,0,0,2.695,5.621c5.581,9.613,13.675,17.879,23.219,24.813,11.069,8.044,22.963,13.379,35.971,15.55,1.318.227,1.328.143,1.328.143a12.027,12.027,0,0,0,13.28-11.967V378.543a6.449,6.449,0,0,1-4.812,1.11m85.884-31.4a12.054,12.054,0,0,0-7.264-6.539l-13.181-4.278a6.447,6.447,0,0,1-.434,4.915,63.763,63.763,0,0,1-51.334,37.294,6.4,6.4,0,0,1-4.807-1.105V392a12.024,12.024,0,0,0,13.63,11.918,28.972,28.972,0,0,0,6.174-.834c10.867-2.324,21.23-7.476,30.775-14.41,11.069-8.039,19.819-17.707,25.909-29.408.617-1.185.538-1.224.538-1.224a12,12,0,0,0,0-9.781m6.065-59.645c-4.224-13.014-10.714-24.32-19.957-33.726-.933-.958-1-.9-1-.9a12.029,12.029,0,0,0-17.771,1.875l-8.143,11.212a6.43,6.43,0,0,1,4.54,1.93,63.784,63.784,0,0,1,19.607,60.35,6.417,6.417,0,0,1-2.537,4.229l12.792,4.16a12.032,12.032,0,0,0,15.55-9.283,29.171,29.171,0,0,0,1.12-6.129c1.135-11.059-.558-22.508-4.2-33.721" transform="translate(-74.704 -215.772)"/>
  </g>
</svg>
